# xmcd CD database file
#
# Track frame offsets:
#	150
#	20545
#	56757
#	96670
#
# Disc length: 4440 seconds
#
# Revision: 0
# Processed by: cddbd v1.5PL3 Copyright (c) Steve Scherf et al.
# Submitted via: CDex 1.51
#
DISCID=33115604
DTITLE=GOING UNDER GROUND - ハートビート
DYEAR=2004
DGENRE=JPop
TTITLE0=ハートビート
TTITLE1=ハートビート（2003.12.5.Version）
TTITLE2=トワイライト
TTITLE3=cddb
EXTD=YEAR: 2004
EXTT0=
EXTT1=
EXTT2=
EXTT3=
PLAYORDER=
